# xmcd CD database file
#
# Track frame offsets:
#	150
#	14120
#	27551
#	42068
#	54479
#	68138
#	81041
#	93890
#	107054
#	119307
#	132975
#	145212
#	158954
#	173758
#	185679
#	197348
#	208301
#	221333
#	233852
#	245942
#	258023
#	270521
#
# Disc length: 3768 seconds
#
# Revision: 0
# Processed by: cddbd v1.5.1PL2 Copyright (c) Steve Scherf et al.
# Submitted via: CDex 1.51
#
DISCID=3e0eb616
DTITLE=Charlie Barnet and his Orchestra - Swing Street Strut, CD 1
DYEAR=1900
DGENRE=Jazz
TTITLE0=What is Sweeter
TTITLE1=I'm no Angel
TTITLE2=I want you, i need you
TTITLE3=Buckin' the Wind
TTITLE4=I want you, i need you
TTITLE5=Infatuation
TTITLE6=I lost another Sweetheart
TTITLE7=Emaline
TTITLE8=Butterfingers
TTITLE9=Baby, take a Bow
TTITLE10=This is our last Night together
TTITLE11=Growlin'
TTITLE12=Nagasaki
TTITLE13=Fare the well, Annabelle
TTITLE14=Don't be afraid to tell your Mother
TTITLE15=On a Holiday
TTITLE16=My first Thrill
TTITLE17=The Swing-Waltz
TTITLE18=Cross Patch
TTITLE19=Too good to be true
TTITLE20=I'm an old Cowhand
TTITLE21=But Definitely
EXTD=
EXTT0=
EXTT1=
EXTT2=
EXTT3=
EXTT4=
EXTT5=
EXTT6=
EXTT7=
EXTT8=
EXTT9=
EXTT10=
EXTT11=
EXTT12=
EXTT13=
EXTT14=
EXTT15=
EXTT16=
EXTT17=
EXTT18=
EXTT19=
EXTT20=
EXTT21=
PLAYORDER=
